# xmcd
#
# Track frame offsets:
#	150
#	9281
#	28725
#	42593
#	55395
#	65963
#	75784
#	86778
#	94539
#	103660
#	113573
#	125553
#
# Disc length: 1747 seconds
#
# Revision: 1
# Processed by: cddbd v1.5.2PL0 Copyright (c) Steve Scherf et al.
# Submitted via: audiograbber 1.83.01
#
DISCID=9606d10c
DTITLE=Frank McCloud - A Tribute to Johnny Western
DYEAR=2007
DGENRE=Country
TTITLE0=Johnny Ringo (Version 1)
TTITLE1=Ghost Riders In The Sky
TTITLE2=Noth To Alaska (Outtake)
TTITLE3=The Gunfighter (Live Version)
TTITLE4=Restless Kid
TTITLE5=The Rebel-Johnny Yuma
TTITLE6=Ballad Of Boot Hill
TTITLE7=Rawhide
TTITLE8=Johnny Ringo (Version 2)
TTITLE9=Ballad Of Paladin
TTITLE10=High Noon
TTITLE11=Randy's Song
EXTD=
EXTT0=
EXTT1=
EXTT2=
EXTT3=
EXTT4=
EXTT5=
EXTT6=
EXTT7=
EXTT8=
EXTT9=
EXTT10=
EXTT11=
PLAYORDER=
